<?xml version="1.0" encoding="UTF-8" standalone="no"?>
<svg
   width="297mm"
   height="210mm"
   viewBox="0 0 1122.5197 793.70078"
   version="1.1"
   xml:space="preserve"
   style="clip-rule:evenodd;fill-rule:evenodd;stroke-linecap:round;stroke-linejoin:round"
   id="svg1"
   sodipodi:docname="corn_kbd_router_template.svg"
   inkscape:version="1.4.2 (ebf0e940, 2025-05-08)"
   xmlns:inkscape="http://www.inkscape.org/namespaces/inkscape"
   xmlns:sodipodi="http://sodipodi.sourceforge.net/DTD/sodipodi-0.dtd"
   xmlns="http://www.w3.org/2000/svg"
   xmlns:svg="http://www.w3.org/2000/svg"><defs
   id="defs1"><inkscape:path-effect
     effect="offset"
     id="path-effect11"
     is_visible="true"
     lpeversion="1.3"
     linejoin_type="extrp_arc"
     unit="mm"
     offset="0.5"
     miter_limit="4"
     attempt_force_join="false"
     update_on_knot_move="true" /><inkscape:path-effect
     effect="offset"
     id="path-effect8"
     is_visible="true"
     lpeversion="1.3"
     linejoin_type="extrp_arc"
     unit="mm"
     offset="4"
     miter_limit="4"
     attempt_force_join="false"
     update_on_knot_move="true" /><rect
     x="406.88553"
     y="611.80967"
     width="279.48691"
     height="39.50345"
     id="rect2" /><inkscape:path-effect
     effect="offset"
     id="path-effect12"
     is_visible="true"
     lpeversion="1.3"
     linejoin_type="extrp_arc"
     unit="mm"
     offset="-2.5"
     miter_limit="4"
     attempt_force_join="false"
     update_on_knot_move="true" /><inkscape:path-effect
     effect="offset"
     id="path-effect9"
     is_visible="true"
     lpeversion="1.3"
     linejoin_type="extrp_arc"
     unit="mm"
     offset="7"
     miter_limit="4"
     attempt_force_join="false"
     update_on_knot_move="true" /><inkscape:path-effect
     effect="offset"
     id="path-effect7"
     is_visible="true"
     lpeversion="1.2"
     linejoin_type="extrp_arc"
     unit="mm"
     offset="10.5"
     miter_limit="4"
     attempt_force_join="false"
     update_on_knot_move="true" /><inkscape:path-effect
     effect="offset"
     id="path-effect5"
     is_visible="true"
     lpeversion="1.3"
     linejoin_type="extrp_arc"
     unit="mm"
     offset="0"
     miter_limit="4"
     attempt_force_join="false"
     update_on_knot_move="true" /><inkscape:path-effect
     effect="offset"
     id="path-effect4"
     is_visible="true"
     lpeversion="1.2"
     linejoin_type="miter"
     unit="mm"
     offset="4"
     miter_limit="4"
     attempt_force_join="false"
     update_on_knot_move="true" /><inkscape:path-effect
     effect="offset"
     id="path-effect3"
     is_visible="true"
     lpeversion="1.2"
     linejoin_type="miter"
     unit="mm"
     offset="4"
     miter_limit="4"
     attempt_force_join="false"
     update_on_knot_move="true" /><inkscape:path-effect
     effect="offset"
     id="path-effect2"
     is_visible="true"
     lpeversion="1.2"
     linejoin_type="miter"
     unit="mm"
     offset="4"
     miter_limit="4"
     attempt_force_join="false"
     update_on_knot_move="true" /><inkscape:path-effect
     effect="offset"
     id="path-effect1"
     is_visible="true"
     lpeversion="1.2"
     linejoin_type="miter"
     unit="mm"
     offset="4"
     miter_limit="4"
     attempt_force_join="false"
     update_on_knot_move="true" /></defs><sodipodi:namedview
   id="namedview1"
   pagecolor="#ffffff"
   bordercolor="#000000"
   borderopacity="0.25"
   inkscape:showpageshadow="2"
   inkscape:pageopacity="0.0"
   inkscape:pagecheckerboard="0"
   inkscape:deskcolor="#d1d1d1"
   inkscape:zoom="2.0251396"
   inkscape:cx="275.04277"
   inkscape:cy="625.63588"
   inkscape:window-width="2560"
   inkscape:window-height="1351"
   inkscape:window-x="-9"
   inkscape:window-y="-9"
   inkscape:window-maximized="1"
   inkscape:current-layer="svg1"
   inkscape:document-units="mm"
   showgrid="false" />
    <g
   id="bottom"
   transform="matrix(1.33333,0,0,-1.33333,270.95163,1004.5963)">
        <g
   id="path70"
   transform="translate(396.524,383.756)"
   style="display:inline">
            <path
   d="m -218.338,185.95 h -51.019 v 0 c -0.783,-10e-4 -1.416,-0.639 -1.416,-1.421 v 0 l -0.003,-10.625 0.003,-0.006 c -10e-4,-0.783 -0.635,-1.417 -1.418,-1.417 l -0.003,0.005 h -104.882 v 0 c -0.783,0 -1.413,-0.5418 -1.413,-1.422 v 0 l -0.006,-156.611 v 0 c 0,-0.783 0.64,-1.42 1.422,-1.42 v 0 l 155.905,0.002 v 0 c 0.376,0 0.737,-0.151 1.003,-0.418 v 0 l 29.885,-40.974 v 0 c 0.266,-0.266 0.627,-0.421 1.003,-0.421 v 0 l 103.944,-13.518 v 0 c 0.628,-0.061 1.254,-0.189 1.859,-0.372 v 0 l 40.513,-23.41 v 0 c 1.8,-1.213 4.70728,-0.744 5.463,1.055 v 0 l 37.5,65.019 v 0 c 0.433,0.752 0.653,1.61 0.642,2.478 v 0 L 0.642,171.067 v 0 c 0,0.782 -0.632,1.414 -1.415,1.414 v 0 l -55.99,0.005 v 0 c -0.783,0 -1.412,0.63 -1.412,1.412 v 0 l -0.007,3.549 v 0 c 0,0.782 -0.634,1.417 -1.417,1.417 v 0 l -51.02,0.001 v 0 c -0.782,0 -1.414,0.629 -1.414,1.411 v 0 l -0.005,4.256 v 0 c 0,0.782 -0.63,1.413 -1.412,1.414 v 0 l -51.025,0.004 0.001,-0.004 h -0.001 c -0.783,0 -1.417,0.635 -1.417,1.417 v 0 l -0.002,3.548 v 0 c 0,0.783 -0.632,1.413 -1.415,1.413 v 0 l -48.192,0.005 v 0 c -0.783,0 -1.414,-0.64 -1.414,-1.423 v 0 l -0.005,-3.538 v 0 c 0,-0.783 -0.635,-1.419 -1.418,-1.418"
   style="display:none;fill:none;fill-rule:nonzero;stroke:#000000;stroke-width:1.00063;stroke-dasharray:1.00063, 2.00126;stroke-dashoffset:0;stroke-opacity:1"
   id="plate_kontur"
   sodipodi:nodetypes="cccccccccccccccccccccccccccccccccccccccccccccccccccccccccccsccccccccccccc"
   inkscape:path-effect="#path-effect5"
   inkscape:original-d="m -218.338,185.95 h -51.019 v 0 c -0.783,-10e-4 -1.416,-0.639 -1.416,-1.421 v 0 l -0.003,-10.625 0.003,-0.006 c -10e-4,-0.783 -0.635,-1.417 -1.418,-1.417 l -0.003,0.005 h -104.882 v 0 c -0.783,0 -1.413,-0.5418 -1.413,-1.422 v 0 l -0.006,-156.611 v 0 c 0,-0.783 0.64,-1.42 1.422,-1.42 v 0 l 155.905,0.002 v 0 c 0.376,0 0.737,-0.151 1.003,-0.418 v 0 l 29.885,-40.974 v 0 c 0.266,-0.266 0.627,-0.421 1.003,-0.421 v 0 l 103.944,-13.518 v 0 c 0.628,-0.061 1.254,-0.189 1.859,-0.372 v 0 l 40.513,-23.41 v 0 c 1.8,-1.213 4.70728,-0.744 5.463,1.055 v 0 l 37.5,65.019 v 0 c 0.433,0.752 0.653,1.61 0.642,2.478 v 0 L 0.642,171.067 v 0 c 0,0.782 -0.632,1.414 -1.415,1.414 v 0 l -55.99,0.005 v 0 c -0.783,0 -1.412,0.63 -1.412,1.412 v 0 l -0.007,3.549 v 0 c 0,0.782 -0.634,1.417 -1.417,1.417 v 0 l -51.02,0.001 v 0 c -0.782,0 -1.414,0.629 -1.414,1.411 v 0 l -0.005,4.256 v 0 c 0,0.782 -0.63,1.413 -1.412,1.414 v 0 l -51.025,0.004 0.001,-0.004 h -0.001 c -0.783,0 -1.417,0.635 -1.417,1.417 v 0 l -0.002,3.548 v 0 c 0,0.783 -0.632,1.413 -1.415,1.413 v 0 l -48.192,0.005 v 0 c -0.783,0 -1.414,-0.64 -1.414,-1.423 v 0 l -0.005,-3.538 v 0 c 0,-0.783 -0.635,-1.419 -1.418,-1.418" />
        <path
   d="m -40.525391,-86.539062 c -4.481037,0.05123 -9.50697,1.299206 -13.523437,4.005859 l 1.160156,-0.724609 -37.365234,21.591796 -101.582034,13.210938 2.5586,-0.164063 c -5.78069,0 -11.15174,2.348999 -15.03321,6.230469 a 21.162433,21.162433 0 0 0 -1.63672,1.841797 l -24.60937,33.7402344 -146.51563,-0.00195 c -11.72458,-10e-8 -21.26367,9.4986958 -21.26367,21.2617187 l 0.006,156.611325 c 0,12.10777 9.6037,21.26368 21.25391,21.26367 h 87.95312 c 3.07056,7.9017 10.65195,13.45129 19.74024,13.4629 a 22.441891,22.441891 0 0 0 0.0195,0 h 38.64258 c 3.8342,3.9295 9.19182,6.3789 15.2207,6.3789 l 48.19141,-0.004 c 5.96601,0 11.32859,-2.44376 15.18164,-6.375 l 38.68554,-0.004 a 22.001747,22.001747 0 0 0 0.0176,0 c 6.29199,-0.008 11.86222,-2.76542 15.740236,-7.08008 l 38.083985,-0.002 c 6.00739,0 11.379173,-2.43942 15.228515,-6.37891 l 43.5976565,-0.004 c 11.7950795,0 21.2578125,-9.4313 21.2578125,-21.25586 l 0.002,-168.3398475 c 0.05552,-4.3808144 -1.058491,-8.7569796 -3.289062,-12.6308594 a 24.578762,24.578762 0 0 0 -0.0039,-0.00977 L -20.308594,-74.9375 l 1.105469,2.228516 c -3.6082,-8.58936 -11.298817,-12.439578 -17.080078,-13.492188 -1.314559,-0.239345 -2.748508,-0.354967 -4.242188,-0.33789 z"
   style="display:inline;fill:none;fill-rule:nonzero;stroke:#000000;stroke-width:1px;stroke-opacity:1"
   id="path7"
   sodipodi:nodetypes="cccccccccccccccccccccccccccccccccccccccccccccccccccccccccccsccccccccccccc"
   inkscape:path-effect="#path-effect9"
   inkscape:original-d="m -218.338,185.95 h -51.019 v 0 c -0.783,-10e-4 -1.416,-0.639 -1.416,-1.421 v 0 l -0.003,-10.625 0.003,-0.006 c -10e-4,-0.783 -0.635,-1.417 -1.418,-1.417 l -0.003,0.005 h -104.882 v 0 c -0.783,0 -1.413,-0.5418 -1.413,-1.422 v 0 l -0.006,-156.611 v 0 c 0,-0.783 0.64,-1.42 1.422,-1.42 v 0 l 155.905,0.002 v 0 c 0.376,0 0.737,-0.151 1.003,-0.418 v 0 l 29.885,-40.974 v 0 c 0.266,-0.266 0.627,-0.421 1.003,-0.421 v 0 l 103.944,-13.518 v 0 c 0.628,-0.061 1.254,-0.189 1.859,-0.372 v 0 l 40.513,-23.41 v 0 c 1.8,-1.213 4.70728,-0.744 5.463,1.055 v 0 l 37.5,65.019 v 0 c 0.433,0.752 0.653,1.61 0.642,2.478 v 0 L 0.642,171.067 v 0 c 0,0.782 -0.632,1.414 -1.415,1.414 v 0 l -55.99,0.005 v 0 c -0.783,0 -1.412,0.63 -1.412,1.412 v 0 l -0.007,3.549 v 0 c 0,0.782 -0.634,1.417 -1.417,1.417 v 0 l -51.02,0.001 v 0 c -0.782,0 -1.414,0.629 -1.414,1.411 v 0 l -0.005,4.256 v 0 c 0,0.782 -0.63,1.413 -1.412,1.414 v 0 l -51.025,0.004 0.001,-0.004 h -0.001 c -0.783,0 -1.417,0.635 -1.417,1.417 v 0 l -0.002,3.548 v 0 c 0,0.783 -0.632,1.413 -1.415,1.413 v 0 l -48.192,0.005 v 0 c -0.783,0 -1.414,-0.64 -1.414,-1.423 v 0 l -0.005,-3.538 v 0 c 0,-0.783 -0.635,-1.419 -1.418,-1.418" /><path
   d="m -41.914062,-58.498047 35.4726558,61.5058595 -0.00195,162.3867175 -50.3203126,0.006 c -3.966154,0 -7.257479,2.71177 -8.201172,6.37695 l -45.654296,0.002 c -4.21402,0 -7.68647,3.04925 -8.35938,7.08007 l -45.47851,0.004 c -0.006,-0.001 -0.0117,-0.003 -0.0176,-0.004 -4.00105,0 -7.27922,2.69511 -8.21289,6.37891 l -37.43945,0.004 c -0.93594,-3.68367 -4.2148,-6.38402 -8.21094,-6.37891 h -45.35156 V 174.125 c 0.002,-0.0788 0.002,-0.15755 0.002,-0.23633 -0.006,-4.72268 -3.76994,-8.49414 -8.50391,-8.49414 -0.0111,0.002 -0.0221,0.004 -0.0332,0.006 h -99.17773 l -0.006,-145.281249 150.24023,0.002 c 2.26921,0 4.43441,-0.906949 6.02344,-2.501953 0.18171,-0.182151 0.35507,-0.372452 0.51953,-0.570313 l 28.50977,-39.091797 101.697261,-13.226562 -0.228515,0.02539 c 1.116992,-0.108497 2.197889,-0.330654 3.222656,-0.640625 0.295526,-0.0891 0.588602,-0.186142 0.878906,-0.291015 z"
   style="display:inline;fill:none;fill-rule:nonzero;stroke:#000000;stroke-width:1px;stroke-opacity:1"
   id="path11"
   sodipodi:nodetypes="cccccccccccccccccccccccccccccccccccccccccccccccccccccccccccsccccccccccccc"
   inkscape:path-effect="#path-effect12"
   inkscape:original-d="m -218.338,185.95 h -51.019 v 0 c -0.783,-10e-4 -1.416,-0.639 -1.416,-1.421 v 0 l -0.003,-10.625 0.003,-0.006 c -10e-4,-0.783 -0.635,-1.417 -1.418,-1.417 l -0.003,0.005 h -104.882 v 0 c -0.783,0 -1.413,-0.5418 -1.413,-1.422 v 0 l -0.006,-156.611 v 0 c 0,-0.783 0.64,-1.42 1.422,-1.42 v 0 l 155.905,0.002 v 0 c 0.376,0 0.737,-0.151 1.003,-0.418 v 0 l 29.885,-40.974 v 0 c 0.266,-0.266 0.627,-0.421 1.003,-0.421 v 0 l 103.944,-13.518 v 0 c 0.628,-0.061 1.254,-0.189 1.859,-0.372 v 0 l 40.513,-23.41 v 0 c 1.8,-1.213 4.70728,-0.744 5.463,1.055 v 0 l 37.5,65.019 v 0 c 0.433,0.752 0.653,1.61 0.642,2.478 v 0 L 0.642,171.067 v 0 c 0,0.782 -0.632,1.414 -1.415,1.414 v 0 l -55.99,0.005 v 0 c -0.783,0 -1.412,0.63 -1.412,1.412 v 0 l -0.007,3.549 v 0 c 0,0.782 -0.634,1.417 -1.417,1.417 v 0 l -51.02,0.001 v 0 c -0.782,0 -1.414,0.629 -1.414,1.411 v 0 l -0.005,4.256 v 0 c 0,0.782 -0.63,1.413 -1.412,1.414 v 0 l -51.025,0.004 0.001,-0.004 h -0.001 c -0.783,0 -1.417,0.635 -1.417,1.417 v 0 l -0.002,3.548 v 0 c 0,0.783 -0.632,1.413 -1.415,1.413 v 0 l -48.192,0.005 v 0 c -0.783,0 -1.414,-0.64 -1.414,-1.423 v 0 l -0.005,-3.538 v 0 c 0,-0.783 -0.635,-1.419 -1.418,-1.418" /><path
   d="m -40.574219,-78.058594 c -2.909687,0.02938 -6.138247,0.836521 -8.722656,2.578125 l 0.662109,-0.416015 -38.84375,22.445312 -103.261714,13.429688 1.46289,-0.09375 c -3.4644,0 -6.68755,1.408251 -9.01953,3.740234 a 12.717242,12.717242 0 0 0 -0.88672,0.984375 l -27.04883,37.0878906 -150.83985,-0.00195 c -7.0349,0 -12.75976,5.7005144 -12.75976,12.7578125 l 0.006,156.611325 c 0,7.29595 5.75717,12.75977 12.75,12.75977 h 94.96484 v 0.70508 c 0,7.09216 5.62431,12.74872 12.74024,12.75781 a 13.443176,13.443176 0 0 0 0.01,0 h 42.85547 c 2.18633,3.7977 6.22821,6.37891 11.00391,6.37891 l 48.19336,-0.004 c 4.72768,0 8.79153,-2.5753 10.99414,-6.375 l 42.86914,-0.004 a 13.196167,13.196167 0 0 0 0.01,0 c 5.01259,-0.006 9.27968,-2.89522 11.36133,-7.08008 l 42.474611,-0.002 c 4.755011,0 8.821045,-2.5644 11.015625,-6.37695 l 47.8105465,-0.006 c 7.0756163,0 12.7539065,-5.65992 12.7539065,-12.75195 l 0.002,-168.4472694 C 12.01886,-0.25618116 11.288448,-3.1250179 9.8242188,-5.6679687 L -27.675781,-70.6875 l 0.630859,1.273438 c -2.223768,-5.293705 -7.009734,-7.736788 -10.761719,-8.419922 -0.863278,-0.15718 -1.797682,-0.234404 -2.767578,-0.22461 z"
   style="display:inline;fill:none;fill-rule:nonzero;stroke:#000000;stroke-width:1.00063;stroke-dasharray:1.00063, 2.00126;stroke-dashoffset:0;stroke-opacity:1"
   id="path6"
   sodipodi:nodetypes="cccccccccccccccccccccccccccccccccccccccccccccccccccccccccccsccccccccccccc"
   inkscape:path-effect="#path-effect8"
   inkscape:original-d="m -218.338,185.95 h -51.019 v 0 c -0.783,-10e-4 -1.416,-0.639 -1.416,-1.421 v 0 l -0.003,-10.625 0.003,-0.006 c -10e-4,-0.783 -0.635,-1.417 -1.418,-1.417 l -0.003,0.005 h -104.882 v 0 c -0.783,0 -1.413,-0.5418 -1.413,-1.422 v 0 l -0.006,-156.611 v 0 c 0,-0.783 0.64,-1.42 1.422,-1.42 v 0 l 155.905,0.002 v 0 c 0.376,0 0.737,-0.151 1.003,-0.418 v 0 l 29.885,-40.974 v 0 c 0.266,-0.266 0.627,-0.421 1.003,-0.421 v 0 l 103.944,-13.518 v 0 c 0.628,-0.061 1.254,-0.189 1.859,-0.372 v 0 l 40.513,-23.41 v 0 c 1.8,-1.213 4.70728,-0.744 5.463,1.055 v 0 l 37.5,65.019 v 0 c 0.433,0.752 0.653,1.61 0.642,2.478 v 0 L 0.642,171.067 v 0 c 0,0.782 -0.632,1.414 -1.415,1.414 v 0 l -55.99,0.005 v 0 c -0.783,0 -1.412,0.63 -1.412,1.412 v 0 l -0.007,3.549 v 0 c 0,0.782 -0.634,1.417 -1.417,1.417 v 0 l -51.02,0.001 v 0 c -0.782,0 -1.414,0.629 -1.414,1.411 v 0 l -0.005,4.256 v 0 c 0,0.782 -0.63,1.413 -1.412,1.414 v 0 l -51.025,0.004 0.001,-0.004 h -0.001 c -0.783,0 -1.417,0.635 -1.417,1.417 v 0 l -0.002,3.548 v 0 c 0,0.783 -0.632,1.413 -1.415,1.413 v 0 l -48.192,0.005 v 0 c -0.783,0 -1.414,-0.64 -1.414,-1.423 v 0 l -0.005,-3.538 v 0 c 0,-0.783 -0.635,-1.419 -1.418,-1.418" /><path
   d="m -39.583984,-68.074219 c -1.347137,-0.245277 -2.951689,-6.41e-4 -4.169922,0.820313 l 0.08398,-0.05078 -40.326172,23.300781 c -0.485955,0.140031 -0.979663,0.248988 -1.472656,0.296875 a 7.6140141,7.6140141 0 0 1 -0.02148,0.002 l -103.970706,13.521484 0.1836,-0.01172 c -0.76205,0 -1.47966,0.31169 -2.00391,0.835937 a 2.8645318,2.8645318 0 0 0 -0.0898,0.09375 l -29.81836,40.882813 -155.88282,-0.002 c -1.56361,0 -2.83984,1.270605 -2.83984,2.837891 l 0.006,156.611325 c 0,1.68217 1.27085,2.83985 2.83008,2.83985 h 104.88281 l 0.002,10.625 c 0,1.57077 1.25756,2.83588 2.83399,2.83789 h 51.02148 c 0,0 -0.002,0.002 -0.002,0.002 l 0.006,3.53711 c 0,1.5659 1.25191,2.83984 2.83008,2.83984 l 48.19336,-0.004 c 1.56833,0 2.83203,-1.26448 2.83203,-2.83203 l 0.002,-3.54297 51.02734,-0.004 c 1.56733,-0.002 2.82813,-1.26423 2.82813,-2.83008 l 0.004,-4.25 51.015621,-0.002 c 1.572006,0 2.835939,-1.26117 2.835937,-2.83203 l 0.0059,-3.54492 55.9843745,-0.006 c 1.56957567,0 2.8339844,-1.26128 2.8339844,-2.83203 L 2.0625,2.4921875 C 2.0766798,1.3732738 1.7923716,0.26297692 1.2304687,-0.71289062 L -36.269531,-65.732422 l 0.07813,0.160156 c -0.608598,-1.448774 -2.008083,-2.249874 -3.392578,-2.501953 z"
   style="display:inline;fill:none;fill-rule:nonzero;stroke:#000000;stroke-width:1.00063;stroke-dasharray:1.00063, 2.00126;stroke-dashoffset:0;stroke-opacity:1"
   id="path8"
   sodipodi:nodetypes="cccccccccccccccccccccccccccccccccccccccccccccccccccccccccccsccccccccccccc"
   inkscape:path-effect="#path-effect11"
   inkscape:original-d="m -218.338,185.95 h -51.019 v 0 c -0.783,-10e-4 -1.416,-0.639 -1.416,-1.421 v 0 l -0.003,-10.625 0.003,-0.006 c -10e-4,-0.783 -0.635,-1.417 -1.418,-1.417 l -0.003,0.005 h -104.882 v 0 c -0.783,0 -1.413,-0.5418 -1.413,-1.422 v 0 l -0.006,-156.611 v 0 c 0,-0.783 0.64,-1.42 1.422,-1.42 v 0 l 155.905,0.002 v 0 c 0.376,0 0.737,-0.151 1.003,-0.418 v 0 l 29.885,-40.974 v 0 c 0.266,-0.266 0.627,-0.421 1.003,-0.421 v 0 l 103.944,-13.518 v 0 c 0.628,-0.061 1.254,-0.189 1.859,-0.372 v 0 l 40.513,-23.41 v 0 c 1.8,-1.213 4.70728,-0.744 5.463,1.055 v 0 l 37.5,65.019 v 0 c 0.433,0.752 0.653,1.61 0.642,2.478 v 0 L 0.642,171.067 v 0 c 0,0.782 -0.632,1.414 -1.415,1.414 v 0 l -55.99,0.005 v 0 c -0.783,0 -1.412,0.63 -1.412,1.412 v 0 l -0.007,3.549 v 0 c 0,0.782 -0.634,1.417 -1.417,1.417 v 0 l -51.02,0.001 v 0 c -0.782,0 -1.414,0.629 -1.414,1.411 v 0 l -0.005,4.256 v 0 c 0,0.782 -0.63,1.413 -1.412,1.414 v 0 l -51.025,0.004 0.001,-0.004 h -0.001 c -0.783,0 -1.417,0.635 -1.417,1.417 v 0 l -0.002,3.548 v 0 c 0,0.783 -0.632,1.413 -1.415,1.413 v 0 l -48.192,0.005 v 0 c -0.783,0 -1.414,-0.64 -1.414,-1.423 v 0 l -0.005,-3.538 v 0 c 0,-0.783 -0.635,-1.419 -1.418,-1.418" /></g>
        <g
   id="g372"
   transform="translate(70.4747,453.065)">
            <path
   id="path374"
   d="M 0,0 C 1.722,0 3.118,-1.396 3.118,-3.118 3.118,-4.84 1.722,-6.236 0,-6.236 c -1.722,0 -3.118,1.396 -3.118,3.118 C -3.118,-1.396 -1.722,0 0,0 Z"
   style="fill:none;fill-rule:nonzero;stroke:#ff0000;stroke-width:1px;stroke-linecap:butt;stroke-linejoin:miter" />
        </g>
        <g
   id="g376"
   transform="translate(70.4747,506.215)">
            <path
   id="path378"
   d="M 0,0 C 1.722,0 3.118,-1.396 3.118,-3.118 3.118,-4.84 1.722,-6.236 0,-6.236 c -1.722,0 -3.118,1.396 -3.118,3.118 C -3.118,-1.396 -1.722,0 0,0 Z"
   style="fill:none;fill-rule:nonzero;stroke:#ff0000;stroke-width:1px;stroke-linecap:butt;stroke-linejoin:miter" />
        </g>
        <g
   id="g380"
   transform="translate(285.908,516.845)">
            <path
   id="path382"
   d="m 0,0 c 1.722,0 3.118,-1.396 3.118,-3.118 0,-1.723 -1.396,-3.118 -3.118,-3.118 -1.722,0 -3.118,1.395 -3.118,3.118 C -3.118,-1.396 -1.722,0 0,0 Z"
   style="fill:none;fill-rule:nonzero;stroke:#ff0000;stroke-width:1px;stroke-linecap:butt;stroke-linejoin:miter" />
        </g>
        <g
   id="g384"
   transform="translate(193.073,404.167)">
            <path
   id="path386"
   d="M 0,0 C 1.722,0 3.118,-1.396 3.118,-3.118 3.118,-4.84 1.722,-6.236 0,-6.236 c -1.722,0 -3.118,1.396 -3.118,3.118 C -3.118,-1.396 -1.722,0 0,0 Z"
   style="fill:none;fill-rule:nonzero;stroke:#ff0000;stroke-width:1px;stroke-linecap:butt;stroke-linejoin:miter" />
        </g>
        <g
   id="g388"
   transform="translate(324.884,382.198)">
            <path
   id="path390"
   d="M 0,0 C 1.722,0 3.118,-1.396 3.118,-3.117 3.118,-4.84 1.722,-6.235 0,-6.235 c -1.722,0 -3.118,1.395 -3.118,3.118 C -3.118,-1.396 -1.722,0 0,0 Z"
   style="fill:none;fill-rule:nonzero;stroke:#ff0000;stroke-width:1px;stroke-linecap:butt;stroke-linejoin:miter" />
        </g>
    </g>
<path
   style="display:inline;fill:none;stroke:#000000;stroke-width:1;stroke-dasharray:none"
   d="M 204.92415,369.85105 H 903.14763"
   id="path9" /><path
   style="fill:none;stroke:#000000;stroke-width:1;stroke-dasharray:none"
   d="M 547.75015,167.39587 V 658.72003"
   id="path10" /><text
   xml:space="preserve"
   style="font-style:normal;font-variant:normal;font-weight:normal;font-stretch:normal;font-size:14.6667px;font-family:Arial;-inkscape-font-specification:Arial;text-align:center;letter-spacing:0px;text-anchor:middle;fill:none;stroke:#000000;stroke-width:3.02362"
   x="259.7352"
   y="619.65466"
   id="text1"><tspan
     sodipodi:role="line"
     id="tspan1"
     x="259.7352"
     y="619.65466"
     style="font-size:14.6667px;fill:#000000;fill-opacity:1;stroke:none">17mm Copying Ring</tspan></text><text
   xml:space="preserve"
   id="text2"
   style="font-style:normal;font-variant:normal;font-weight:normal;font-stretch:normal;font-size:21.3333px;font-family:Arial;-inkscape-font-specification:Arial;text-align:center;letter-spacing:0px;white-space:pre;shape-inside:url(#rect2);display:inline;fill:none;stroke:#000000;stroke-width:3.02362" /><text
   xml:space="preserve"
   style="font-style:normal;font-variant:normal;font-weight:normal;font-stretch:normal;font-size:14.6667px;font-family:Arial;-inkscape-font-specification:Arial;text-align:center;letter-spacing:0px;text-anchor:middle;fill:#000000;fill-opacity:1;stroke:none;stroke-width:3.02362"
   x="235.05316"
   y="638.41876"
   id="text3"><tspan
     sodipodi:role="line"
     id="tspan3"
     x="235.05316"
     y="638.41876">4mm Router</tspan></text><ellipse
   style="fill:none;stroke-width:3.02362"
   id="path2"
   cx="598.41693"
   cy="210.92744"
   rx="1.6034116"
   ry="7.6081295" /><g
   id="g5"
   transform="translate(-350.18277,442.61787)"><ellipse
     style="fill:#000000;fill-opacity:0;stroke:#ff0000;stroke-width:0.229062;stroke-dasharray:none;stroke-opacity:1"
     id="path4"
     cx="725.71631"
     cy="187.72874"
     rx="7.4445238"
     ry="7.4445243" /><circle
     style="fill:#000000;fill-opacity:0;stroke:#ff0000;stroke-width:0.518984;stroke-dasharray:none;stroke-opacity:1"
     id="path5"
     cx="725.71631"
     cy="187.72874"
     r="31.866493" /></g></svg>
